# xmcd CD database file
#
# Track frame offsets:
#	150
#	17825
#	42637
#	64987
#	88675
#	105450
#	122470
#	141230
#	163430
#	180737
#	201387
#	224707
#	249275
#	277277
#
# Disc length: 4118 seconds
#
# Revision: 3
# Processed by: cddbd v1.5.1PL2 Copyright (c) Steve Scherf et al.
# Submitted via: CDex 1.51
#
DISCID=e110140e
DTITLE=TOTO - エッセンシャル・TOTO
DYEAR=2003
DGENRE=Rock
TTITLE0=ホールド・ザ・ライン
TTITLE1=ロザーナ
TTITLE2=アフリカ
TTITLE3=99
TTITLE4=メイク・ビリーヴ
TTITLE5=愛する君に
TTITLE6=ジョージー・ボージー
TTITLE7=ホールド・ユー・バック
TTITLE8=アイル・ビー・オーヴァー・ユー
TTITLE9=ウィズアウト・ユア・ラヴ
TTITLE10=パメラ
TTITLE11=ターニング・ポイント
TTITLE12=マインドフィールズ
TTITLE13=オン・ザ・ラン（ライヴ）
EXTD=Song 9 was mistitled YEAR: 2003
EXTT0=
EXTT1=
EXTT2=
EXTT3=
EXTT4=
EXTT5=
EXTT6=
EXTT7=
EXTT8=
EXTT9=
EXTT10=
EXTT11=
EXTT12=
EXTT13=
PLAYORDER=
